<svg width="24" height="24" viewBox="0 0 24 24" fill="none" xmlns="http://www.w3.org/2000/svg">
<path d="M12.28 5.54C13.33 5.54 14.65 4.81 15.43 3.83C16.14 2.95 16.66 1.71 16.66 0.47C16.66 0.3 16.65 0.13 16.62 0C15.45 0.05 14.04 0.81 13.2 1.83C12.53 2.61 11.93 3.83 11.93 5.08C11.93 5.26 11.96 5.45 11.97 5.51C12.04 5.53 12.16 5.54 12.28 5.54ZM8.58002 24C10.02 24 10.65 23.01 12.44 23.01C14.23 23.01 14.66 23.97 16.26 23.97C17.86 23.97 18.88 22.47 19.87 21.01C20.98 19.33 21.44 17.68 21.47 17.61C21.37 17.58 18.36 16.31 18.36 12.76C18.36 9.68 20.73 8.29 20.86 8.18C19.29 5.86 16.91 5.8 16.26 5.8C14.5 5.8 13.06 6.9 12.16 6.9C11.18 6.9 9.90002 5.86 8.37002 5.86C5.47002 5.86 2.52002 8.33 2.52002 13C2.52002 15.9 3.62002 18.97 4.96002 20.95C6.11002 22.63 7.12002 24 8.57002 24H8.58002Z" fill="black"/>
</svg>
