<svg width="24" height="24" viewBox="0 0 24 24" fill="none" xmlns="http://www.w3.org/2000/svg">
<g clip-path="url(#clip0_8_87)">
<path fill-rule="evenodd" clip-rule="evenodd" d="M23.52 12.273C23.52 11.45 23.4464 10.6288 23.3 9.81897H12V14.461H18.458C18.3244 15.1953 18.0433 15.8948 17.6316 16.5174C17.22 17.1399 16.6863 17.6725 16.063 18.083V21.094H19.941C21.1221 19.9566 22.051 18.5837 22.6674 17.0643C23.2838 15.5448 23.5739 13.9128 23.519 12.274L23.52 12.273Z" fill="#4285F4"/>
<path fill-rule="evenodd" clip-rule="evenodd" d="M12 24C14.9212 24.0794 17.7623 23.0395 19.942 21.093L16.064 18.082C15.1363 18.6774 14.0849 19.0531 12.99 19.1805C11.8951 19.3079 10.7855 19.1836 9.74595 18.8171C8.70636 18.4505 7.76419 17.8515 6.99127 17.0655C6.21836 16.2796 5.63511 15.3276 5.286 14.282H1.276V17.391C2.27533 19.3783 3.80737 21.0487 5.70106 22.2158C7.59476 23.3828 9.77557 24.0006 12 24Z" fill="#34A853"/>
<path fill-rule="evenodd" clip-rule="evenodd" d="M5.28497 14.28C4.78313 12.8014 4.78313 11.1986 5.28497 9.72002V6.61102H1.27597C0.436688 8.28346 -0.000366211 10.1288 -0.000366211 12C-0.000366211 13.8712 0.436688 15.7166 1.27597 17.389L5.28497 14.28Z" fill="#FBBC05"/>
<path fill-rule="evenodd" clip-rule="evenodd" d="M12 4.77299C13.7056 4.74454 15.3537 5.38948 16.587 6.56799L20.029 3.12499C17.8569 1.08522 14.9795 -0.0346708 12 -1.23545e-05C9.77536 -0.000405631 7.5944 0.617614 5.70069 1.78503C3.80697 2.95244 2.27505 4.62329 1.276 6.61099L5.285 9.71999C5.74617 8.29663 6.64212 7.05375 7.84673 6.16631C9.05133 5.27887 10.5039 4.79156 12 4.77299Z" fill="#EA4335"/>
</g>
<defs>
<clipPath id="clip0_8_87">
<rect width="24" height="24" fill="white"/>
</clipPath>
</defs>
</svg>
