<svg width="76" height="100" viewBox="0 0 76 100" fill="none" xmlns="http://www.w3.org/2000/svg">
<rect x="1" y="1" width="74" height="74" rx="37" fill="#F9EB80" stroke="#99B163" stroke-width="2"/>
<path d="M29.5165 26.0625C29.5165 30.5076 33.1339 34.125 37.579 34.125C42.0242 34.125 45.6415 30.5076 45.6415 26.0625C45.6415 21.6174 42.0242 18 37.579 18C33.1339 18 29.5165 21.6174 29.5165 26.0625ZM51.9124 52.0417H53.704V50.25C53.704 43.336 48.0764 37.7083 41.1624 37.7083H33.9957C27.0799 37.7083 21.454 43.336 21.454 50.25V52.0417H51.9124Z" fill="#89C53F"/>
<path d="M18.2102 80.4545V95H16.5341V80.4545H18.2102ZM25.712 95.2273C24.7272 95.2273 23.863 94.9929 23.1197 94.5241C22.381 94.0554 21.8034 93.3996 21.3867 92.5568C20.9748 91.714 20.7688 90.7292 20.7688 89.6023C20.7688 88.4659 20.9748 87.474 21.3867 86.6264C21.8034 85.7789 22.381 85.1207 23.1197 84.652C23.863 84.1832 24.7272 83.9489 25.712 83.9489C26.6969 83.9489 27.5586 84.1832 28.2972 84.652C29.0406 85.1207 29.6183 85.7789 30.0302 86.6264C30.4469 87.474 30.6552 88.4659 30.6552 89.6023C30.6552 90.7292 30.4469 91.714 30.0302 92.5568C29.6183 93.3996 29.0406 94.0554 28.2972 94.5241C27.5586 94.9929 26.6969 95.2273 25.712 95.2273ZM25.712 93.7216C26.4601 93.7216 27.0756 93.5298 27.5586 93.1463C28.0415 92.7628 28.399 92.2585 28.631 91.6335C28.863 91.0085 28.979 90.3314 28.979 89.6023C28.979 88.8731 28.863 88.1937 28.631 87.5639C28.399 86.9342 28.0415 86.4252 27.5586 86.0369C27.0756 85.6487 26.4601 85.4545 25.712 85.4545C24.9639 85.4545 24.3484 85.6487 23.8654 86.0369C23.3825 86.4252 23.025 86.9342 22.793 87.5639C22.561 88.1937 22.445 88.8731 22.445 89.6023C22.445 90.3314 22.561 91.0085 22.793 91.6335C23.025 92.2585 23.3825 92.7628 23.8654 93.1463C24.3484 93.5298 24.9639 93.7216 25.712 93.7216ZM37.6172 99.3182C36.8075 99.3182 36.1115 99.214 35.5291 99.0057C34.9467 98.8021 34.4614 98.5322 34.0732 98.196C33.6896 97.8646 33.3842 97.5095 33.157 97.1307L34.4922 96.1932C34.6437 96.392 34.8355 96.6193 35.0675 96.875C35.2995 97.1354 35.6167 97.3603 36.0192 97.5497C36.4264 97.7438 36.959 97.8409 37.6172 97.8409C38.4979 97.8409 39.2247 97.6278 39.7976 97.2017C40.3705 96.7756 40.657 96.108 40.657 95.1989V92.983H40.5149C40.3918 93.1818 40.2166 93.428 39.9893 93.7216C39.7668 94.0104 39.4448 94.2685 39.0234 94.4957C38.6068 94.7183 38.0433 94.8295 37.3331 94.8295C36.4524 94.8295 35.6617 94.6212 34.9609 94.2045C34.2649 93.7879 33.7133 93.1818 33.3061 92.3864C32.9036 91.5909 32.7024 90.625 32.7024 89.4886C32.7024 88.3712 32.8989 87.3982 33.2919 86.5696C33.6849 85.7363 34.2318 85.0923 34.9325 84.6378C35.6333 84.1785 36.4429 83.9489 37.3615 83.9489C38.0717 83.9489 38.6352 84.0672 39.0518 84.304C39.4732 84.536 39.7952 84.8011 40.0178 85.0994C40.245 85.393 40.4202 85.6345 40.5433 85.8239H40.7138V84.0909H42.3331V95.3125C42.3331 96.25 42.12 97.0123 41.6939 97.5994C41.2725 98.1913 40.7043 98.6245 39.9893 98.8991C39.2791 99.1785 38.4884 99.3182 37.6172 99.3182ZM37.5604 93.3239C38.2327 93.3239 38.8009 93.17 39.2649 92.8622C39.7289 92.5545 40.0817 92.1117 40.3232 91.5341C40.5646 90.9564 40.6854 90.2652 40.6854 89.4602C40.6854 88.6742 40.567 87.9806 40.3303 87.3793C40.0935 86.7779 39.7431 86.3068 39.2791 85.9659C38.8151 85.625 38.2422 85.4545 37.5604 85.4545C36.8501 85.4545 36.2583 85.6345 35.7848 85.9943C35.3161 86.3542 34.9633 86.8371 34.7266 87.4432C34.4946 88.0492 34.3786 88.7216 34.3786 89.4602C34.3786 90.2178 34.4969 90.8878 34.7337 91.4702C34.9751 92.0478 35.3303 92.5024 35.799 92.8338C36.2725 93.1605 36.8596 93.3239 37.5604 93.3239ZM49.8331 95.2273C48.8482 95.2273 47.9841 94.9929 47.2408 94.5241C46.5021 94.0554 45.9245 93.3996 45.5078 92.5568C45.0959 91.714 44.8899 90.7292 44.8899 89.6023C44.8899 88.4659 45.0959 87.474 45.5078 86.6264C45.9245 85.7789 46.5021 85.1207 47.2408 84.652C47.9841 84.1832 48.8482 83.9489 49.8331 83.9489C50.8179 83.9489 51.6797 84.1832 52.4183 84.652C53.1617 85.1207 53.7393 85.7789 54.1513 86.6264C54.5679 87.474 54.7763 88.4659 54.7763 89.6023C54.7763 90.7292 54.5679 91.714 54.1513 92.5568C53.7393 93.3996 53.1617 94.0554 52.4183 94.5241C51.6797 94.9929 50.8179 95.2273 49.8331 95.2273ZM49.8331 93.7216C50.5812 93.7216 51.1967 93.5298 51.6797 93.1463C52.1626 92.7628 52.5201 92.2585 52.7521 91.6335C52.9841 91.0085 53.1001 90.3314 53.1001 89.6023C53.1001 88.8731 52.9841 88.1937 52.7521 87.5639C52.5201 86.9342 52.1626 86.4252 51.6797 86.0369C51.1967 85.6487 50.5812 85.4545 49.8331 85.4545C49.085 85.4545 48.4695 85.6487 47.9865 86.0369C47.5036 86.4252 47.1461 86.9342 46.9141 87.5639C46.6821 88.1937 46.5661 88.8731 46.5661 89.6023C46.5661 90.3314 46.6821 91.0085 46.9141 91.6335C47.1461 92.2585 47.5036 92.7628 47.9865 93.1463C48.4695 93.5298 49.085 93.7216 49.8331 93.7216Z" fill="black"/>
</svg>
