<svg width="29" height="28" viewBox="0 0 29 28" fill="none" xmlns="http://www.w3.org/2000/svg">
<path d="M27.7503 28L16.6658 17.299C15.7807 18.027 14.7629 18.5903 13.6123 18.9891C12.4617 19.3878 11.3052 19.5872 10.1428 19.5872C7.30827 19.5872 4.90915 18.6399 2.94549 16.7453C0.981831 14.8496 0 12.5341 0 9.79872C0 7.06337 0.98065 4.7467 2.94195 2.8487C4.90443 0.949567 7.30237 0 10.1358 0C12.9703 0 15.3706 0.947859 17.3366 2.84358C19.3027 4.73929 20.2857 7.05597 20.2857 9.79359C20.2857 10.9807 20.0679 12.1296 19.6325 13.2404C19.1959 14.3512 18.6235 15.3013 17.9155 16.0908L29 26.7901L27.7503 28ZM10.1428 17.8766C12.4912 17.8766 14.4743 17.0962 16.0922 15.5354C17.7089 13.9747 18.5173 12.0601 18.5173 9.79188C18.5173 7.52477 17.7089 5.61082 16.0922 4.05005C14.4755 2.48927 12.493 1.70888 10.1446 1.70888C7.79623 1.70888 5.8131 2.48927 4.1952 4.05005C2.57849 5.61082 1.77013 7.52477 1.77013 9.79188C1.77013 12.059 2.57849 13.9729 4.1952 15.5337C5.81192 17.0945 7.79446 17.8766 10.1428 17.8766Z" fill="black"/>
</svg>
