<svg width="15" height="15" viewBox="0 0 15 15" fill="none" xmlns="http://www.w3.org/2000/svg">
<path d="M14.0145 5.69882C13.9559 5.51866 13.8452 5.35988 13.6966 5.24247C13.5479 5.12506 13.3678 5.05429 13.1789 5.03906L9.72188 4.76015L8.38712 1.53222C8.31493 1.35633 8.19208 1.20588 8.03417 1.1C7.87626 0.994113 7.69043 0.937576 7.5003 0.937576C7.31018 0.937576 7.12435 0.994113 6.96644 1.1C6.80853 1.20588 6.68567 1.35633 6.61349 1.53222L5.27989 4.75957L1.8211 5.03906C1.63195 5.05506 1.45172 5.12652 1.303 5.24449C1.15428 5.36246 1.04368 5.5217 0.985064 5.70225C0.926444 5.88281 0.922409 6.07664 0.973465 6.25948C1.02452 6.44231 1.1284 6.60601 1.27208 6.73007L3.9088 9.00527L3.10548 12.4072C3.06055 12.592 3.07155 12.786 3.13708 12.9646C3.20261 13.1432 3.31972 13.2982 3.47354 13.4101C3.62736 13.522 3.81095 13.5856 4.00101 13.593C4.19107 13.6003 4.37903 13.551 4.54102 13.4514L7.50001 11.6303L10.4608 13.4514C10.6228 13.5499 10.8104 13.5982 10.9999 13.5903C11.1893 13.5824 11.3722 13.5186 11.5255 13.407C11.6788 13.2953 11.7956 13.1408 11.8613 12.9629C11.927 12.785 11.9385 12.5917 11.8945 12.4072L11.0883 9.00468L13.725 6.72949C13.8699 6.60563 13.9747 6.44158 14.0262 6.2581C14.0777 6.07462 14.0736 5.87998 14.0145 5.69882ZM13.1156 6.01933L10.2621 8.48027C10.197 8.53636 10.1486 8.60925 10.1222 8.69099C10.0957 8.77273 10.0922 8.86016 10.1121 8.94374L10.984 12.6234C10.9862 12.6285 10.9865 12.6342 10.9846 12.6395C10.9828 12.6447 10.979 12.649 10.974 12.6516C10.9635 12.6598 10.9606 12.658 10.9518 12.6516L7.74552 10.6799C7.67168 10.6345 7.58669 10.6104 7.50001 10.6104C7.41333 10.6104 7.32834 10.6345 7.2545 10.6799L4.04825 12.6527C4.03946 12.658 4.03712 12.6598 4.02599 12.6527C4.02104 12.6502 4.01725 12.6459 4.0154 12.6407C4.01354 12.6354 4.01377 12.6297 4.01602 12.6246L4.8879 8.94492C4.90777 8.86134 4.90429 8.7739 4.87783 8.69216C4.85138 8.61043 4.80297 8.53753 4.7379 8.48144L1.88438 6.0205C1.87735 6.01464 1.87091 6.00937 1.87677 5.99121C1.88263 5.97304 1.88731 5.97539 1.8961 5.97421L5.64142 5.67187C5.72732 5.6645 5.80953 5.63358 5.879 5.58252C5.94846 5.53145 6.0025 5.46221 6.03516 5.38242L7.47774 1.88964C7.48243 1.87968 7.48419 1.87499 7.49825 1.87499C7.51231 1.87499 7.51407 1.87968 7.51876 1.88964L8.96485 5.38242C8.99782 5.46224 9.0522 5.5314 9.122 5.58227C9.19179 5.63314 9.27428 5.66374 9.36036 5.6707L13.1057 5.97304C13.1145 5.97304 13.1197 5.97304 13.125 5.99003C13.1303 6.00703 13.125 6.01347 13.1156 6.01933Z" fill="black"/>
</svg>
